<svg xmlns="http://www.w3.org/2000/svg" height="100" width="100">

  <circle  cx="50" cy="50" r="50" fill="rgba(#212121, 0.12)" opacity="0.1"/>
  <circle  cx="50" cy="50" r="49" fill="#00b1d6" />
  <clipPath id="clip">
    <circle cx="50" cy="50" r="49" />
  </clipPath>

  <polygon points="32,29 24,32 24,40" fill="#000"/>
  <rect x="32" y="29" width="36" height="60" fill="#88c2cf" />

  <!-- <ellipse cx="50" cy="28" rx="26" ry="3" fill="#cccccc" />
  <rect x="24" y="28" width="52" height="1" fill="#cccccc"/>
  <ellipse cx="50" cy="29" rx="26" ry="3" fill="#cccccc" />

  <ellipse cx="50" cy="26" rx="25.5" ry="3" fill="#b4b4b4" />
  <rect x="24.5" y="26" width="51" height="1" fill="#b4b4b4"/>
  <ellipse cx="50" cy="27" rx="25.5" ry="3" fill="#b4b4b4" />

  <ellipse cx="50" cy="25" rx="25" ry="3" fill="#d2d2d2" />
  <rect x="25" y="20" width="50" height="5" fill="#d2d2d2"/>
  <ellipse cx="50" cy="20" rx="25" ry="3" fill="#eeeeee" />
  <ellipse cx="50" cy="20" rx="15" ry="1" fill="#d4d4d4" /> -->

</svg>
